[Header]
FileType HTR
DataType HTRS
FileVersion 1
NumSegments 64
NumFrames 4
DataFrameRate 30
EulerRotationOrder ZYX
CalibrationUnits mm
RotationUnits Degrees
GlobalAxisofGravity Y
BoneLengthAxis Y
ScaleFactor 1.0
[SegmentNames&Hierarchy]
Hips	GLOBAL
Spine	Hips
Spine1	Spine
Spine2	Spine1
Neck	Spine2
Head	Neck
LeftEye	Head
RightEye	Head
LeftShoulder	Spine2
LeftArm	LeftShoulder
LeftForeArm	LeftArm
LeftHand	LeftForeArm
LeftHandThumb1	LeftHand
LeftHandThumb2	LeftHandThumb1
LeftHandThumb3	LeftHandThumb2
LeftHandThumb4	LeftHandThumb3
LeftHandIndex1	LeftHand
LeftHandIndex2	LeftHandIndex1
LeftHandIndex3	LeftHandIndex2
LeftHandIndex4	LeftHandIndex3
LeftHandMiddle1	LeftHand
LeftHandMiddle2	LeftHandMiddle1
LeftHandMiddle3	LeftHandMiddle2
LeftHandMiddle4	LeftHandMiddle3
LeftHandRing1	LeftHand
LeftHandRing2	LeftHandRing1
LeftHandRing3	LeftHandRing2
LeftHandRing4	LeftHandRing3
LeftHandPinky1	LeftHand
LeftHandPinky2	LeftHandPinky1
LeftHandPinky3	LeftHandPinky2
LeftHandPinky4	LeftHandPinky3
RightShoulder	Spine2
RightArm	RightShoulder
RightForeArm	RightArm
RightHand	RightForeArm
RightHandPinky1	RightHand
RightHandPinky2	RightHandPinky1
RightHandPinky3	RightHandPinky2
RightHandPinky4	RightHandPinky3
RightHandRing1	RightHand
RightHandRing2	RightHandRing1
RightHandRing3	RightHandRing2
RightHandRing4	RightHandRing3
RightHandMiddle1	RightHand
RightHandMiddle2	RightHandMiddle1
RightHandMiddle3	RightHandMiddle2
RightHandMiddle4	RightHandMiddle3
RightHandIndex1	RightHand
RightHandIndex2	RightHandIndex1
RightHandIndex3	RightHandIndex2
RightHandIndex4	RightHandIndex3
RightHandThumb1	RightHand
RightHandThumb2	RightHandThumb1
RightHandThumb3	RightHandThumb2
RightHandThumb4	RightHandThumb3
LeftUpLeg	Hips
LeftLeg	LeftUpLeg
LeftFoot	LeftLeg
LeftToeBase	LeftFoot
RightUpLeg	Hips
RightLeg	RightUpLeg
RightFoot	RightLeg
RightToeBase	RightFoot
[BasePosition]
Hips	0	0	0	0	0	0	1
Spine	0	0	0	0	0	0	1
Spine1	0	0	0	0	0	0	1
Spine2	0	0	0	0	0	0	1
Neck	0	0	0	0	0	0	1
Head	0	0	0	0	0	0	1
LeftEye	0	0	0	0	0	0	1
RightEye	0	0	0	0	0	0	1
LeftShoulder	0	0	0	0	0	0	1
LeftArm	0	0	0	0	0	0	1
LeftForeArm	0	0	0	0	0	0	1
LeftHand	0	0	0	0	0	0	1
LeftHandThumb1	0	0	0	0	0	0	1
LeftHandThumb2	0	0	0	0	0	0	1
LeftHandThumb3	0	0	0	0	0	0	1
LeftHandThumb4	0	0	0	0	0	0	1
LeftHandIndex1	0	0	0	0	0	0	1
LeftHandIndex2	0	0	0	0	0	0	1
LeftHandIndex3	0	0	0	0	0	0	1
LeftHandIndex4	0	0	0	0	0	0	1
LeftHandMiddle1	0	0	0	0	0	0	1
LeftHandMiddle2	0	0	0	0	0	0	1
LeftHandMiddle3	0	0	0	0	0	0	1
LeftHandMiddle4	0	0	0	0	0	0	1
LeftHandRing1	0	0	0	0	0	0	1
LeftHandRing2	0	0	0	0	0	0	1
LeftHandRing3	0	0	0	0	0	0	1
LeftHandRing4	0	0	0	0	0	0	1
LeftHandPinky1	0	0	0	0	0	0	1
LeftHandPinky2	0	0	0	0	0	0	1
LeftHandPinky3	0	0	0	0	0	0	1
LeftHandPinky4	0	0	0	0	0	0	1
RightShoulder	0	0	0	0	0	0	1
RightArm	0	0	0	0	0	0	1
RightForeArm	0	0	0	0	0	0	1
RightHand	0	0	0	0	0	0	1
RightHandPinky1	0	0	0	0	0	0	1
RightHandPinky2	0	0	0	0	0	0	1
RightHandPinky3	0	0	0	0	0	0	1
RightHandPinky4	0	0	0	0	0	0	1
RightHandRing1	0	0	0	0	0	0	1
RightHandRing2	0	0	0	0	0	0	1
RightHandRing3	0	0	0	0	0	0	1
RightHandRing4	0	0	0	0	0	0	1
RightHandMiddle1	0	0	0	0	0	0	1
RightHandMiddle2	0	0	0	0	0	0	1
RightHandMiddle3	0	0	0	0	0	0	1
RightHandMiddle4	0	0	0	0	0	0	1
RightHandIndex1	0	0	0	0	0	0	1
RightHandIndex2	0	0	0	0	0	0	1
RightHandIndex3	0	0	0	0	0	0	1
RightHandIndex4	0	0	0	0	0	0	1
RightHandThumb1	0	0	0	0	0	0	1
RightHandThumb2	0	0	0	0	0	0	1
RightHandThumb3	0	0	0	0	0	0	1
RightHandThumb4	0	0	0	0	0	0	1
LeftUpLeg	0	0	0	0	0	0	1
LeftLeg	0	0	0	0	0	0	1
LeftFoot	0	0	0	0	0	0	1
LeftToeBase	0	0	0	0	0	0	1
RightUpLeg	0	0	0	0	0	0	1
RightLeg	0	0	0	0	0	0	1
RightFoot	0	0	0	0	0	0	1
RightToeBase	0	0	0	0	0	0	1
[Hips]
26	1.79889667	613.5113525	432.2697144	44.11660767	1.288455129	-0.6924408674	1.0
27	1.747863173	621.302063	442.6549988	44.31637573	1.241625667	-0.6413505673	1.0
28	1.740709066	623.3052979	448.3634949	43.80220413	1.231393695	-0.6067255735	1.0
29	1.748259783	622.9147949	451.2121887	42.45708084	1.242853045	-0.5833629966	1.0
[Spine]
26	0	101.8159943	1.315000057	20.1310482	-0.4428561628	1.394045472	1.0
27	0	101.8159943	1.315000057	22.92228889	-0.4402056932	1.326371908	1.0
28	0	101.8159943	1.315000057	25.32811737	-0.4686409831	1.290342212	1.0
29	0	101.8159943	1.315000057	27.14468002	-0.523032248	1.269349337	1.0
[Spine1]
26	0	100.8349991	-10.00800037	4.245401859	-4.357284706e-05	5.142698501e-05	1.0
27	0	100.8349991	-10.00800037	6.717818737	-4.57926908e-05	4.945849287e-05	1.0
28	0	100.8349991	-10.00800037	8.936210632	-4.770990199e-05	4.761199307e-05	1.0
29	0	100.8349991	-10.00800037	10.76105976	-4.923342931e-05	4.603901107e-05	1.0
[Spine2]
26	0	91	-13.73399925	10.46073723	-4.062873771e-08	3.140027047e-07	1.0
27	0	91	-13.73399925	12.34350586	-5.196418584e-08	3.123502097e-07	1.0
28	0	91	-13.73399925	13.95284271	-6.159721977e-08	3.106271436e-07	1.0
29	0	91	-13.73399925	15.18934059	-6.895710669e-08	3.091013525e-07	1.0
[Neck]
26	0	166.7169952	-25.16200066	-15.40956116	3.996036355e-07	2.505135797e-07	1.0
27	0	166.7169952	-25.16200066	-14.47875881	3.950599989e-07	2.575930864e-07	1.0
28	0	166.7169952	-25.16200066	-13.40105724	3.896383305e-07	2.65696201e-07	1.0
29	0	166.7169952	-25.16200066	-12.20049953	3.833922904e-07	2.745879897e-07	1.0
[Head]
26	0	96.17900085	16.84999847	-13.32765675	-0.09894567728	-0.2246132642	1.0
27	0	96.17900085	16.84999847	-4.198538303	-0.04398168251	-0.2382214516	1.0
28	0	96.17900085	16.84999847	4.683618069	0.01349466946	-0.2395524085	1.0
29	0	96.17900085	16.84999847	12.64967442	0.0672448352	-0.2296880335	1.0
[LeftEye]
26	30.6760006	64.09500122	92.83599854	0	0	0	1.0
27	30.6760006	64.09500122	92.83599854	0	0	0	1.0
28	30.6760006	64.09500122	92.83599854	0	0	0	1.0
29	30.6760006	64.09500122	92.83599854	0	0	0	1.0
[RightEye]
26	-30.6760006	64.09500122	92.83499908	0	0	0	1.0
27	-30.6760006	64.09500122	92.83499908	0	0	0	1.0
28	-30.6760006	64.09500122	92.83499908	0	0	0	1.0
29	-30.6760006	64.09500122	92.83499908	0	0	0	1.0
[LeftShoulder]
26	45.70400238	109.4599991	-26.28000069	-3.267951012	-12.3471384	22.88549614	1.0
27	45.70400238	109.4599991	-26.28000069	-5.864247322	-15.19801903	27.53276443	1.0
28	45.70400238	109.4599991	-26.28000069	-8.659607887	-17.37623024	31.92416763	1.0
29	45.70400238	109.4599991	-26.28000069	-11.19766617	-18.87088585	35.51763535	1.0
[LeftArm]
26	105.923996	-5.24600029	-22.32099915	-31.77060699	-25.67457199	-30.08430672	1.0
27	105.923996	-5.24600029	-22.32099915	-42.68444061	-31.50282669	-19.07642937	1.0
28	105.923996	-5.24600029	-22.32099915	-52.93544388	-32.95584106	-6.652552128	1.0
29	105.923996	-5.24600029	-22.32099915	-60.20171738	-31.46578598	4.2585392	1.0
[LeftForeArm]
26	278.414978	-0.0009999999311	0	1.034911929e-05	-52.59457779	-0.0002062698768	1.0
27	278.414978	-0.0009999999311	0	6.62798584e-06	-40.29876709	-0.000208416197	1.0
28	278.414978	-0.0009999999311	0	1.094032359e-05	-28.36771202	-0.0002058586397	1.0
29	278.414978	-0.0009999999311	0	1.568600396e-06	-17.62531662	-0.0002087964676	1.0
[LeftHand]
26	283.2879944	0	0	-9.261636734	-7.982584953	-3.862999439	1.0
27	283.2879944	0	0	-4.285611153	-7.948289394	-11.99554253	1.0
28	283.2879944	0	0	0.105675295	-7.185915947	-19.35916901	1.0
29	283.2879944	0	0	3.690804958	-5.996642113	-25.43377686	1.0
[LeftHandThumb1]
26	24.6609993	-15.75	26.8239994	9.490298271	4.695907593	-7.431710243	1.0
27	24.6609993	-15.75	26.8239994	11.26720619	5.825325966	-9.887509346	1.0
28	24.6609993	-15.75	26.8239994	12.77774429	6.77437973	-12.17669868	1.0
29	24.6609993	-15.75	26.8239994	13.88942051	7.464819908	-14.0279808	1.0
[LeftHandThumb2]
26	32.29800034	-18.64699936	18.64699936	77.75702667	52.26524734	57.39675903	1.0
27	32.29800034	-18.64699936	18.64699936	79.11573792	52.31868744	58.57207489	1.0
28	32.29800034	-18.64699936	18.64699936	79.57749176	52.33568954	58.97154617	1.0
29	32.29800034	-18.64699936	18.64699936	78.76815033	52.30941391	58.27118301	1.0
[LeftHandThumb3]
26	26.52600098	-15.31499958	15.31499958	27.75126266	37.54291916	29.88035202	1.0
27	26.52600098	-15.31499958	15.31499958	23.9548645	34.46373749	27.67783356	1.0
28	26.52600098	-15.31499958	15.31499958	20.57542801	31.27240562	25.78710556	1.0
29	26.52600098	-15.31499958	15.31499958	17.63882637	28.09113693	24.18494415	1.0
[LeftHandThumb4]
26	19.54599953	-11.28499985	11.28499985	0	0	0	1.0
27	19.54599953	-11.28499985	11.28499985	0	0	0	1.0
28	19.54599953	-11.28499985	11.28499985	0	0	0	1.0
29	19.54599953	-11.28499985	11.28499985	0	0	0	1.0
[LeftHandIndex1]
26	91.09299469	-5.170999527	22.60099792	-6.707101345	21.87508583	-79.79167938	1.0
27	91.09299469	-5.170999527	22.60099792	-6.912114143	22.56840897	-81.88298798	1.0
28	91.09299469	-5.170999527	22.60099792	-7.040212631	22.99894524	-83.19100189	1.0
29	91.09299469	-5.170999527	22.60099792	-7.058276176	23.05979919	-83.37577057	1.0
[LeftHandIndex2]
26	36.76399994	0	0	-2.172973156	4.541172504	-51.12479401	1.0
27	36.76399994	0	0	-1.948800445	4.351517677	-48.23420334	1.0
28	36.76399994	0	0	-1.725236773	4.141442299	-45.21459198	1.0
29	36.76399994	0	0	-1.510058045	3.9167068	-42.15254211	1.0
[LeftHandIndex3]
26	28.83100128	0	0	-0.7281983495	2.823931217	-28.91438293	1.0
27	28.83100128	0	0	-0.7628302574	2.88562274	-29.60919189	1.0
28	28.83100128	0	0	-0.792045176	2.936381817	-30.1844368	1.0
29	28.83100128	0	0	-0.8059375882	2.960262537	-30.45586967	1.0
[LeftHandIndex4]
26	23.92700005	0	0	0	0	0	1.0
27	23.92700005	0	0	0	0	0	1.0
28	23.92700005	0	0	0	0	0	1.0
29	23.92700005	0	0	0	0	0	1.0
[LeftHandMiddle1]
26	95.33399963	0	0	-6.549190044	6.075863361	-74.74881744	1.0
27	95.33399963	0	0	-6.863716602	6.573671818	-77.75798798	1.0
28	95.33399963	0	0	-7.098900318	6.99468565	-80.03780365	1.0
29	95.33399963	0	0	-7.21630764	7.287520409	-81.20285797	1.0
[LeftHandMiddle2]
26	36.98199844	0	0	-3.09223628	5.146283627	-61.97913742	1.0
27	36.98199844	0	0	-2.863954782	5.01873827	-59.40351105	1.0
28	36.98199844	0	0	-2.620085001	4.866776943	-56.57329941	1.0
29	36.98199844	0	0	-2.365586281	4.689319611	-53.51742172	1.0
[LeftHandMiddle3]
26	29.50900078	0	0	-2.325305462	4.659481525	-53.02388382	1.0
27	29.50900078	0	0	-1.883767486	4.292289734	-47.36967468	1.0
28	29.50900078	0	0	-1.486307383	3.889568329	-41.79800034	1.0
29	29.50900078	0	0	-1.148298383	3.476452351	-36.5447197	1.0
[LeftHandMiddle4]
26	28.3390007	0	0	0	0	0	1.0
27	28.3390007	0	0	0	0	0	1.0
28	28.3390007	0	0	0	0	0	1.0
29	28.3390007	0	0	0	0	0	1.0
[LeftHandRing1]
26	91.04499817	-0.4390000105	-18.65100098	-6.548857689	-2.939682961	-72.65792084	1.0
27	91.04499817	-0.4390000105	-18.65100098	-6.734917164	-2.786757231	-74.32051086	1.0
28	91.04499817	-0.4390000105	-18.65100098	-6.848101616	-2.589773655	-75.36154175	1.0
29	91.04499817	-0.4390000105	-18.65100098	-6.855836391	-2.282642603	-75.50415802	1.0
[LeftHandRing2]
26	31.54000092	0	0	-2.20489645	4.566640854	-51.52677536	1.0
27	31.54000092	0	0	-1.895011902	4.302954197	-47.52122498	1.0
28	31.54000092	0	0	-1.59845376	4.011720657	-43.42970657	1.0
29	31.54000092	0	0	-1.327291131	3.705201626	-39.40229034	1.0
[LeftHandRing3]
26	29.37700081	0	0	-1.716223001	4.132631302	-45.09036636	1.0
27	29.37700081	0	0	-1.469170451	3.871195793	-41.55144119	1.0
28	29.37700081	0	0	-1.237560868	3.593334198	-37.99274445	1.0
29	29.37700081	0	0	-1.029091477	3.309901237	-34.53247833	1.0
[LeftHandRing4]
26	26.47500038	0	0	0	0	0	1.0
27	26.47500038	0	0	0	0	0	1.0
28	26.47500038	0	0	0	0	0	1.0
29	26.47500038	0	0	0	0	0	1.0
[LeftHandPinky1]
26	80.77799988	-4.887000084	-38.06099701	-7.315131187	-18.10207748	-74.92567444	1.0
27	80.77799988	-4.887000084	-38.06099701	-7.42201519	-18.23300362	-75.7077713	1.0
28	80.77799988	-4.887000084	-38.06099701	-7.436645031	-18.07073402	-75.87522888	1.0
29	80.77799988	-4.887000084	-38.06099701	-7.318872929	-17.43958473	-75.15421295	1.0
[LeftHandPinky2]
26	36	0	0	-1.790606976	4.205275059	-46.11348724	1.0
27	36	0	0	-1.293749928	3.663598299	-38.88145447	1.0
28	36	0	0	-0.8659104705	3.056186199	-31.56746483	1.0
29	36	0	0	-0.536511898	2.444170237	-24.73019028	1.0
[LeftHandPinky3]
26	21.14200211	0	0	-1.545305371	3.955329657	-42.66710663	1.0
27	21.14200211	0	0	-1.529697061	3.93837285	-42.44042587	1.0
28	21.14200211	0	0	-1.518179059	3.925822496	-42.27281189	1.0
29	21.14200211	0	0	-1.493272185	3.898421764	-41.90859604	1.0
[LeftHandPinky4]
26	19.75699997	0	0	0	0	0	1.0
27	19.75699997	0	0	0	0	0	1.0
28	19.75699997	0	0	0	0	0	1.0
29	19.75699997	0	0	0	0	0	1.0
[RightShoulder]
26	-45.70000076	109.4620056	-26.28000069	-3.26799798	12.34712505	-22.88550568	1.0
27	-45.70000076	109.4620056	-26.28000069	-5.864285469	15.19800091	-27.53276443	1.0
28	-45.70000076	109.4620056	-26.28000069	-8.659649849	17.37621117	-31.92417145	1.0
29	-45.70000076	109.4620056	-26.28000069	-11.19771671	18.87086105	-35.51763535	1.0
[RightArm]
26	-105.9280014	-5.248000145	-22.32099915	-31.77040863	25.6746769	30.08459091	1.0
27	-105.9280014	-5.248000145	-22.32099915	-42.68422318	31.50297928	19.07673454	1.0
28	-105.9280014	-5.248000145	-22.32099915	-52.93529129	32.95603943	6.652819633	1.0
29	-105.9280014	-5.248000145	-22.32099915	-60.20161819	31.46603203	-4.258319855	1.0
[RightForeArm]
26	-278.414978	0	0	-1.160971169e-05	52.59433746	-3.637831469e-06	1.0
27	-278.414978	0	0	-3.23530503e-06	40.29852676	-1.029093437e-05	1.0
28	-278.414978	0	0	-4.081785391e-06	28.36749649	-6.988252153e-06	1.0
29	-278.414978	0	0	-1.723042942e-06	17.62511063	-4.77281219e-06	1.0
[RightHand]
26	-283.2879944	0	0.0009999999311	-7.973936081	7.953347206	4.629929543	1.0
27	-283.2879944	0	0.0009999999311	-2.999567986	7.853263378	12.75677013	1.0
28	-283.2879944	0	0.0009999999311	1.380042791	7.033530235	20.10951233	1.0
29	-283.2879944	0	0.0009999999311	4.948136806	5.798079967	26.17140579	1.0
[RightHandPinky1]
26	-80.76699829	-4.885000229	-38.06000137	-6.307761192	19.27702332	74.11923981	1.0
27	-80.76699829	-4.885000229	-38.06000137	-6.397743702	19.41025925	74.90637207	1.0
28	-80.76699829	-4.885000229	-38.06000137	-6.408595085	19.24851608	75.07543182	1.0
29	-80.76699829	-4.885000229	-38.06000137	-6.305853844	18.61528969	74.35150909	1.0
[RightHandPinky2]
26	-36	0	0.0009999999311	-1.42434454	-3.342735529	46.16807175	1.0
27	-36	0	0.0009999999311	-1.02922976	-2.912117958	38.93484497	1.0
28	-36	0	0.0009999999311	-0.6888712645	-2.429159403	31.6162014	1.0
29	-36	0	0.0009999999311	-0.4267538488	-1.942472339	24.77182388	1.0
[RightHandPinky3]
26	-21.14200211	0	0	-1.230371833	-3.145205975	42.72155762	1.0
27	-21.14200211	0	0	-1.217959166	-3.13173914	42.49483109	1.0
28	-21.14200211	0	0	-1.208788157	-3.121766806	42.32714844	1.0
29	-21.14200211	0	0	-1.188967347	-3.099989891	41.96284485	1.0
[RightHandPinky4]
26	-19.75699997	0	0	0	0	0	1.0
27	-19.75699997	0	0	0	0	0	1.0
28	-19.75699997	0	0	0	0	0	1.0
29	-19.75699997	0	0	0	0	0	1.0
[RightHandRing1]
26	-91.03599548	-0.4390000105	-18.65100098	-5.578056335	4.108354568	71.89757538	1.0
27	-91.03599548	-0.4390000105	-18.65100098	-5.729962826	3.961395741	73.56278992	1.0
28	-91.03599548	-0.4390000105	-18.65100098	-5.821698189	3.767728329	74.60562134	1.0
29	-91.03599548	-0.4390000105	-18.65100098	-5.826455116	3.461063623	74.74927521	1.0
[RightHandRing2]
26	-31.54000092	0	0	-1.754937768	-3.630963326	51.58000565	1.0
27	-31.54000092	0	0	-1.508530498	-3.421428442	47.57567215	1.0
28	-31.54000092	0	0	-1.272653103	-3.190019846	43.48429489	1.0
29	-31.54000092	0	0	-1.056917548	-2.946423292	39.4559288	1.0
[RightHandRing3]
26	-29.37700081	0	0	-1.366328359	-3.286099434	45.14500046	1.0
27	-29.37700081	0	0	-1.169814587	-3.07836628	41.60568619	1.0
28	-29.37700081	0	0	-0.98551476	-2.85751462	38.04576874	1.0
29	-29.37700081	0	0	-0.8195921779	-2.632209539	34.58353043	1.0
[RightHandRing4]
26	-26.47500038	0	0	0	0	0	1.0
27	-26.47500038	0	0	0	0	0	1.0
28	-26.47500038	0	0	0	0	0	1.0
29	-26.47500038	0	0	0	0	0	1.0
[RightHandMiddle1]
26	-95.32500458	0	0	-5.535671234	-4.899759293	74.01955414	1.0
27	-95.32500458	0	0	-5.788060188	-5.389821529	77.02379608	1.0
28	-95.32500458	0	0	-5.97591114	-5.807005405	79.29920959	1.0
29	-95.32500458	0	0	-6.06906414	-6.098515511	80.46185303	1.0
[RightHandMiddle2]
26	-36.98199844	0	0	-2.460203648	-4.091395855	62.02446747	1.0
27	-36.98199844	0	0	-2.278810978	-3.99010253	59.45141602	1.0
28	-36.98199844	0	0	-2.084994793	-3.869394302	56.62356186	1.0
29	-36.98199844	0	0	-1.882686615	-3.728414059	53.56968307	1.0
[RightHandMiddle3]
26	-29.50900078	0	0	-1.85068047	-3.70673418	53.07645798	1.0
27	-29.50900078	0	0	-1.499569893	-3.414982557	47.42416	1.0
28	-29.50900078	0	0	-1.183424711	-3.094964981	41.85232544	1.0
29	-29.50900078	0	0	-0.9144803286	-2.766622305	36.59705734	1.0
[RightHandMiddle4]
26	-28.3390007	0	0.0009999999311	0	0	0	1.0
27	-28.3390007	0	0.0009999999311	0	0	0	1.0
28	-28.3390007	0	0.0009999999311	0	0	0	1.0
29	-28.3390007	0	0.0009999999311	0	0	0	1.0
[RightHandIndex1]
26	-91.08300018	-5.167999744	22.60099792	-5.594126225	-20.68767929	79.07478333	1.0
27	-91.08300018	-5.167999744	22.60099792	-5.752896786	-21.37907028	81.14966583	1.0
28	-91.08300018	-5.167999744	22.60099792	-5.851877689	-21.80909157	82.4468689	1.0
29	-91.08300018	-5.167999744	22.60099792	-5.865842342	-21.86987495	82.63014984	1.0
[RightHandIndex2]
26	-36.76399994	0	0	-1.729553461	-3.610707283	51.17817688	1.0
27	-36.76399994	0	0	-1.551294446	-3.460026741	48.28848648	1.0
28	-36.76399994	0	0	-1.373497009	-3.293119669	45.26921844	1.0
29	-36.76399994	0	0	-1.202327251	-3.114522696	42.20690155	1.0
[RightHandIndex3]
26	-28.83100128	0	0	-0.5800777078	-2.245899677	28.9607029	1.0
27	-28.83100128	0	0	-0.6076479554	-2.294932604	29.65620232	1.0
28	-28.83100128	0	0	-0.6308913827	-2.335264921	30.23200035	1.0
29	-28.83100128	0	0	-0.6419505477	-2.354254484	30.50369072	1.0
[RightHandIndex4]
26	-23.92700005	0	0	0	0	0	1.0
27	-23.92700005	0	0	0	0	0	1.0
28	-23.92700005	0	0	0	0	0	1.0
29	-23.92700005	0	0	0	0	0	1.0
[RightHandThumb1]
26	-24.64799881	-15.72700024	26.82600021	8.279888153	-2.784822464	8.383718491	1.0
27	-24.64799881	-15.72700024	26.82600021	10.03318787	-3.915163517	10.91240406	1.0
28	-24.64799881	-15.72700024	26.82600021	11.52536106	-4.862785339	13.26199722	1.0
29	-24.64799881	-15.72700024	26.82600021	12.62523174	-5.549996376	15.1566782	1.0
[RightHandThumb2]
26	-32.29800034	-18.64699936	18.64699936	80.69127655	-53.46747971	-60.40016174	1.0
27	-32.29800034	-18.64699936	18.64699936	82.09236908	-53.4940834	-61.61344147	1.0
28	-32.29800034	-18.64699936	18.64699936	82.5684433	-53.50194931	-62.02574921	1.0
29	-32.29800034	-18.64699936	18.64699936	81.734375	-53.49185944	-61.30326462	1.0
[RightHandThumb3]
26	-26.52600098	-15.31399918	15.31399918	34.10063171	-41.63078308	-34.63502884	1.0
27	-26.52600098	-15.31399918	15.31399918	29.79202652	-38.7878952	-31.93621635	1.0
28	-26.52600098	-15.31399918	15.31399918	25.96660614	-35.79080963	-29.61473083	1.0
29	-26.52600098	-15.31399918	15.31399918	22.65459061	-32.76519012	-27.65166664	1.0
[RightHandThumb4]
26	-19.54599953	-11.28499985	11.28499985	0	0	0	1.0
27	-19.54599953	-11.28499985	11.28499985	0	0	0	1.0
28	-19.54599953	-11.28499985	11.28499985	0	0	0	1.0
29	-19.54599953	-11.28499985	11.28499985	0	0	0	1.0
[LeftUpLeg]
26	82.07800293	-67.51699829	-15.99599934	-54.27484512	-3.373927832	8.820753098	1.0
27	82.07800293	-67.51699829	-15.99599934	-54.01974487	-2.496001959	8.657173157	1.0
28	82.07800293	-67.51699829	-15.99599934	-53.24584579	-1.604524732	8.534439087	1.0
29	82.07800293	-67.51699829	-15.99599934	-51.70006943	-0.7712301016	8.439863205	1.0
[LeftLeg]
26	0	-443.7049866	2.845999956	93.76424408	10.2950182	-7.143494129	1.0
27	0	-443.7049866	2.845999956	92.7410202	10.18435097	-7.529391289	1.0
28	0	-443.7049866	2.845999956	92.60469818	10.18505192	-7.717850685	1.0
29	0	-443.7049866	2.845999956	92.860466	10.25078201	-7.813736439	1.0
[LeftFoot]
26	0	-444.2789917	-29.8219986	-54.70984268	4.959146023	3.594494343	1.0
27	0	-444.2789917	-29.8219986	-50.55115509	4.645678997	4.149225235	1.0
28	0	-444.2789917	-29.8219986	-48.16812134	4.051588535	4.968572617	1.0
29	0	-444.2789917	-29.8219986	-46.89986801	3.296652794	6.076553345	1.0
[LeftToeBase]
26	0	-87.28699493	107.1060028	-40.09264755	-8.28509954e-08	6.236815011e-07	1.0
27	0	-87.28699493	107.1060028	-43.45241165	-8.811273347e-07	-6.993950592e-07	1.0
28	0	-87.28699493	107.1060028	-45.6936264	5.129551255e-07	-1.805358067e-07	1.0
29	0	-87.28699493	107.1060028	-47.07401276	8.404637128e-07	1.570356631e-06	1.0
[RightUpLeg]
26	-82.07800293	-67.51699829	-15.99599934	-127.7019119	-5.347775459	-13.05868626	1.0
27	-82.07800293	-67.51699829	-15.99599934	-126.8468475	-5.271466255	-12.03859138	1.0
28	-82.07800293	-67.51699829	-15.99599934	-126.1075439	-5.251736641	-10.96414757	1.0
29	-82.07800293	-67.51699829	-15.99599934	-124.9538345	-5.200893402	-9.853834152	1.0
[RightLeg]
26	0	-443.7049866	2.861999989	79.49358368	-8.828069687	5.513489723	1.0
27	0	-443.7049866	2.861999989	79.63056183	-8.924362183	5.4232831	1.0
28	0	-443.7049866	2.861999989	80.26151276	-9.084715843	4.865835667	1.0
29	0	-443.7049866	2.861999989	81.12475586	-9.242023468	3.961063385	1.0
[RightFoot]
26	0	-444.2770081	-29.83799934	2.938715219	-11.22332478	3.770524025	1.0
27	0	-444.2770081	-29.83799934	1.900104284	-10.17602062	3.003548622	1.0
28	0	-444.2770081	-29.83799934	1.281005979	-8.660933495	2.27998209	1.0
29	0	-444.2770081	-29.83799934	0.8913116455	-6.785506725	1.563152909	1.0
[RightToeBase]
26	0	-87.28699493	107.1060028	-1.515573604e-05	-2.909377805e-08	-1.999551955e-07	1.0
27	0	-87.28699493	107.1060028	-1.515573604e-05	-2.909377805e-08	-1.999551955e-07	1.0
28	0	-87.28699493	107.1060028	-1.515573604e-05	-2.909377805e-08	-1.999551955e-07	1.0
29	0	-87.28699493	107.1060028	-1.515573604e-05	-2.909377805e-08	-1.999551955e-07	1.0
[EndOfFile]
